<svg width="20" height="20" viewBox="0 0 20 20" fill="none" xmlns="http://www.w3.org/2000/svg">
<mask id="mask0" mask-type="alpha" maskUnits="userSpaceOnUse" x="0" y="0" width="20" height="20">
<rect width="20" height="20" fill="#C4C4C4"/>
</mask>
<g mask="url(#mask0)">
<path d="M9.75465 1.05469C10.1906 0.827385 10.7227 1.35469 10.4911 1.79019C10.3566 2.14519 9.84655 2.23959 9.58605 1.96899C9.31005 1.70929 9.40005 1.19599 9.75465 1.05469ZM5.06613 1.56009C5.33094 1.45109 5.66614 1.69369 5.63914 1.98229C5.66724 2.29559 5.28414 2.52619 5.01424 2.37729C4.65663 2.23879 4.69753 1.65829 5.06613 1.56009ZM14.6688 2.38609C14.255 2.33609 14.1895 1.68549 14.5879 1.55449C14.8969 1.40379 15.1804 1.68639 15.2256 1.97929C15.1608 2.22939 14.9514 2.45839 14.6688 2.38609ZM6.13294 3.55559C6.57564 3.27559 7.20734 3.69259 7.13924 4.2068C7.11624 4.726 6.42664 5.0268 6.03754 4.6758C5.66134 4.4001 5.71834 3.76759 6.13294 3.55559ZM12.8911 3.85269C13.0886 3.34369 13.8889 3.32829 14.1137 3.82379C14.3359 4.2094 14.0626 4.6869 13.6667 4.818C13.1423 4.9159 12.6442 4.349 12.8911 3.85269ZM9.19005 4.7891C9.18575 4.3516 9.58425 4.02559 10.0001 3.9958C10.2759 4.0511 10.5765 4.1686 10.6948 4.4469C10.9153 4.8308 10.7195 5.3594 10.3211 5.5356C10.1389 5.6377 9.92345 5.5994 9.72505 5.5875C9.42175 5.4386 9.16635 5.1466 9.19005 4.7891ZM2.21753 5.4266C2.62193 5.178 3.16753 5.6317 3.01443 6.071C2.93013 6.451 2.41933 6.6056 2.12733 6.363C1.81563 6.1357 1.86503 5.5892 2.21753 5.4266ZM17.1901 5.4258C17.5332 5.1594 18.0994 5.465 18.0585 5.8982C18.0815 6.2932 17.592 6.5911 17.2514 6.3877C16.8763 6.2191 16.838 5.642 17.1901 5.4258ZM11.1509 6.2123C11.7171 6.0089 12.3896 6.2523 12.7123 6.7571C13.138 7.37421 12.9115 8.31401 12.2509 8.66811C11.5664 9.08691 10.5669 8.73191 10.3141 7.96751C10.0271 7.28321 10.4452 6.4268 11.1509 6.2123ZM7.82884 6.2796C8.45635 5.9834 9.30085 6.2319 9.60395 6.8738C9.96065 7.49861 9.68485 8.36861 9.04715 8.69121C8.40865 9.05381 7.50784 8.77891 7.19884 8.10811C6.85234 7.45941 7.16004 6.5783 7.82884 6.2796ZM4.50253 7.41681C4.55023 7.0125 4.93164 6.7494 5.31644 6.7222C5.73104 6.7722 6.06224 7.0942 6.10734 7.51381C6.08014 7.92921 5.75914 8.33521 5.31894 8.33271C4.83463 8.37441 4.41003 7.89261 4.50253 7.41681ZM14.3274 6.8101C14.8246 6.5207 15.515 6.942 15.4929 7.51321C15.527 8.11841 14.7629 8.54491 14.2678 8.18991C13.7535 7.89431 13.7936 7.0618 14.3274 6.8101ZM6.47694 8.94311C7.05844 8.78311 7.72334 9.05721 8.00854 9.59171C8.32095 10.1297 8.19324 10.8771 7.70804 11.2717C7.08574 11.8505 5.93804 11.6181 5.60684 10.8282C5.22624 10.1041 5.68854 9.13371 6.47694 8.94311ZM12.7779 8.94011C13.3432 8.77841 14.0073 8.99631 14.3112 9.51131C14.713 10.1003 14.5212 10.9788 13.923 11.3585C13.2964 11.7994 12.3258 11.5679 11.981 10.8785C11.563 10.1654 11.9836 9.15761 12.7779 8.94011ZM2.73683 9.61211C3.23913 9.42211 3.79593 9.97641 3.59243 10.4744C3.46813 10.9281 2.82873 11.0958 2.49843 10.7613C2.11193 10.4472 2.25503 9.74831 2.73683 9.61211ZM16.3519 10.3348C16.3374 9.91861 16.6419 9.55001 17.0687 9.52701C17.4127 9.58151 17.7472 9.85901 17.72 10.2335C17.7515 10.7281 17.1555 11.0643 16.7341 10.8319C16.5366 10.7315 16.4353 10.5289 16.3519 10.3348ZM0.26702 9.85641C0.569221 9.72451 0.943022 9.98641 0.874022 10.322C0.857822 10.702 0.29682 10.8481 0.0907196 10.5306C-0.0913809 10.3101 0.0176194 9.97011 0.26702 9.85641ZM19.3214 9.84881C19.5342 9.69731 19.8756 9.80621 19.9599 10.0548C20.1029 10.3263 19.8407 10.6983 19.5351 10.6524C19.1061 10.6915 18.9673 10.0377 19.3214 9.84881ZM8.11835 11.6729C8.91355 11.4661 9.76835 12.1292 9.77335 12.948C9.82525 13.7754 8.98335 14.5091 8.16934 14.318C7.54014 14.2167 7.04644 13.6106 7.06684 12.9748C7.06514 12.3667 7.52404 11.8015 8.11835 11.6729ZM11.2676 11.6712C12.0747 11.4456 12.955 12.1206 12.9422 12.9583C12.9848 13.7704 12.1692 14.4794 11.3722 14.3183C10.6222 14.2213 10.0688 13.3973 10.2782 12.6695C10.3839 12.1845 10.7891 11.7901 11.2676 11.6712ZM5.19564 12.1752C5.75414 12.0799 6.27774 12.703 6.05124 13.2333C5.88604 13.7984 5.06364 13.9517 4.70003 13.4901C4.27353 13.0468 4.59193 12.2364 5.19564 12.1752ZM14.4312 12.2001C14.9292 11.9915 15.5405 12.4223 15.5022 12.9628C15.5222 13.5578 14.7675 13.9681 14.2805 13.6208C13.7289 13.309 13.8293 12.3914 14.4312 12.2001ZM17.0126 14.7893C16.8176 14.4258 17.1718 13.944 17.5754 14.0113C17.7763 14.0079 17.9168 14.1662 18.0454 14.299C18.0718 14.5144 18.1161 14.7714 17.9373 14.9374C17.6945 15.2447 17.1445 15.157 17.0126 14.7893ZM2.21583 14.1125C2.59303 13.8614 3.13583 14.2359 3.05103 14.6769C3.00593 15.0669 2.51463 15.2898 2.19103 15.0685C1.84373 14.8676 1.85653 14.2956 2.21583 14.1125ZM9.66785 14.9289C10.1617 14.711 10.7908 15.1409 10.744 15.6848C10.7806 16.2858 10.0025 16.702 9.51965 16.3411C8.98335 16.0312 9.07275 15.1195 9.66785 14.9289ZM6.21634 15.7341C6.63694 15.5128 7.20134 15.895 7.16304 16.3657C7.17584 16.7522 6.79864 17.0816 6.41724 17.0245C6.10134 17.0177 5.89534 16.7345 5.79404 16.4652C5.79924 16.1717 5.92004 15.8448 6.21634 15.7341ZM13.2078 15.7409C13.6403 15.4736 14.255 15.8575 14.2141 16.3609C14.2252 16.887 13.5305 17.224 13.1278 16.8784C12.7379 16.6075 12.7855 15.9563 13.2078 15.7409ZM14.4236 18.7466C14.2312 18.4555 14.4577 18.1048 14.7701 18.0384C15.0213 18.0895 15.2869 18.2784 15.2341 18.5696C15.1975 18.9637 14.6211 19.0846 14.4236 18.7466ZM4.77243 18.4938C4.84903 18.2631 5.03464 18.0338 5.30624 18.0938C5.70214 18.1219 5.81964 18.7186 5.47314 18.9025C5.16154 19.1126 4.80003 18.8249 4.77243 18.4938ZM9.42855 18.7585C9.50435 18.4172 9.94615 18.2512 10.2374 18.4325C10.4298 18.5151 10.486 18.7304 10.5354 18.9134C10.509 19.0087 10.4854 19.1041 10.4622 19.1994C10.343 19.3407 10.1898 19.482 9.99135 19.4769C9.62265 19.5201 9.29005 19.1033 9.42855 18.7585Z" fill="#3CC8C8"/>
</g>
</svg>
