<svg width="20" height="16" viewBox="0 0 20 16" fill="none" xmlns="http://www.w3.org/2000/svg">
<path d="M11.5386 15.9605C15.4257 15.5591 18.4616 12.1483 18.4616 8C18.4616 3.85172 15.4257 0.44088 11.5386 0.0395002C11.7916 0.0133755 12.0482 0 12.3078 0C16.5561 0 20 3.58172 20 8C20 12.4183 16.5561 16 12.3078 16C12.0482 16 11.7916 15.9866 11.5386 15.9605Z" fill="#201C4D" fill-opacity="0.2"/>
<path d="M9.22969 15.9605C13.1168 15.5591 16.1526 12.1483 16.1526 8C16.1526 3.85172 13.1168 0.44088 9.22969 0.0395002C9.48269 0.0133755 9.7393 0 9.99891 0C14.2472 0 17.6911 3.58172 17.6911 8C17.6911 12.4183 14.2472 16 9.99891 16C9.7393 16 9.48269 15.9866 9.22969 15.9605Z" fill="#201C4D" fill-opacity="0.2"/>
<path d="M7.69217 0C3.44213 0 0 3.57988 0 8C0 12.4201 3.44213 16 7.69217 16C11.9422 16 15.3843 12.4201 15.3843 8C15.3843 3.57988 11.9422 0 7.69217 0ZM7.59033 13.3027L4.55556 8.82613L7.59712 10.6761V13.3027H7.59033ZM7.59033 10.0265L4.5284 8.1624L7.59033 6.7714V10.0265ZM7.59033 6.53839L4.63024 7.88703L7.59033 2.71139C7.59033 2.71845 7.59033 6.53839 7.59033 6.53839ZM7.79401 2.71139L10.7948 7.90821L7.79401 6.53839V2.71139ZM7.79401 13.3027V10.6831L10.8356 8.83319L7.79401 13.3027ZM7.79401 10.0265V6.76434L10.8559 8.1624L7.79401 10.0265Z" fill="#201C4D" fill-opacity="0.2"/>
</svg>
