<svg width="20" height="20" viewBox="0 0 20 20" fill="none" xmlns="http://www.w3.org/2000/svg">
<circle cx="10" cy="10" r="9" fill="white"/>
<path d="M11.56 11.32C11.64 11.52 11.68 11.76 11.6 12C11.56 12.32 11.4 12.52 11.2 12.72C11 12.92 10.76 13 10.52 13.04C10.28 13.08 9.96 13.04 9.6 12.96L8.96 12.84C8.76 12.8 8.64 12.76 8.56 12.72C8.52 12.68 8.48 12.64 8.48 12.6C8.48 12.56 8.48 12.4 8.52 12.12L8.88 10.24L10 10.44C10.48 10.52 10.84 10.64 11.08 10.76C11.32 10.96 11.48 11.12 11.56 11.32ZM11.6 7.36C11.4 7.24 11.04 7.16 10.48 7.04L9.52 6.88L9.12 9L10.08 9.16C10.56 9.24 10.96 9.28 11.2 9.24C11.44 9.2 11.64 9.12 11.8 8.96C11.96 8.8 12.04 8.64 12.08 8.4C12.12 8.16 12.12 7.96 12 7.8C11.96 7.64 11.8 7.48 11.6 7.36ZM20 10C20 15.52 15.52 20 10 20C4.48 20 0 15.52 0 10C0 4.48 4.48 0 10 0C15.52 0 20 4.48 20 10ZM14.12 7.36C13.96 7 13.68 6.68 13.28 6.4C13.12 6.28 12.92 6.2 12.72 6.12L13 4.6L11.56 4.32L11.28 5.72L10.32 5.6L10.6 4.2L9.12 3.92L8.84 5.36L6.6 4.92L6.36 6.12L6.72 6.2C6.96 6.24 7.08 6.28 7.16 6.36C7.24 6.4 7.28 6.48 7.28 6.56C7.32 6.64 7.28 6.8 7.24 7.04L6.36 11.84C6.32 12.08 6.28 12.24 6.24 12.32C6.2 12.4 6.12 12.44 6.04 12.44C5.96 12.48 5.8 12.48 5.56 12.4L5.2 12.32L4.96 13.52L7.2 13.92L6.92 15.36L8.4 15.64L8.68 14.24L9.52 14.4C9.56 14.4 9.6 14.4 9.64 14.44L9.36 15.88L10.8 16.16L11.08 14.64C11.32 14.64 11.56 14.6 11.76 14.56C12.32 14.44 12.76 14.24 13.08 13.88C13.44 13.56 13.64 13.16 13.72 12.68C13.8 12.28 13.76 11.92 13.64 11.6C13.52 11.24 13.32 10.96 13.04 10.72C12.84 10.56 12.56 10.4 12.16 10.2C12.56 10.16 12.88 10.04 13.16 9.88C13.44 9.72 13.64 9.52 13.8 9.32C13.96 9.08 14.08 8.84 14.12 8.56C14.32 8.12 14.28 7.72 14.12 7.36Z" fill="#F5A61A"/>
</svg>
