<svg width="20" height="20" viewBox="0 0 20 20" fill="none" xmlns="http://www.w3.org/2000/svg">
<mask id="mask0" mask-type="alpha" maskUnits="userSpaceOnUse" x="0" y="0" width="20" height="20">
<rect width="20" height="20" fill="#C4C4C4"/>
</mask>
<g mask="url(#mask0)">
<circle cx="10.002" cy="10.0002" r="9" fill="white"/>
<path d="M11.9652 10.5688C12.1199 10.7187 12.2543 10.9215 12.2792 11.1733C12.3732 11.4818 12.3087 11.7296 12.2077 11.9938C12.1067 12.258 11.9202 12.429 11.7174 12.5634C11.5146 12.6978 11.2061 12.7918 10.8448 12.8657L10.2115 13.0172C10.0126 13.0623 9.88671 13.0747 9.79735 13.0708C9.74451 13.0506 9.69167 13.0304 9.67535 12.9939C9.65904 12.9574 9.59376 12.8113 9.51606 12.5393L9.07781 10.676L10.182 10.4017C10.6528 10.2789 11.0305 10.2416 11.2986 10.2533C11.5993 10.338 11.8106 10.4188 11.9652 10.5688ZM10.3863 6.93694C10.1548 6.90896 9.79344 6.98278 9.23321 7.10167L8.29145 7.34721L8.79108 9.44597L9.73284 9.20042C10.2037 9.07765 10.5852 8.95099 10.788 8.81657C10.9908 8.68214 11.1408 8.52751 11.2216 8.31616C11.3024 8.10481 11.3102 7.92609 11.2488 7.69065C11.1874 7.45521 11.1058 7.27261 10.931 7.17548C10.8292 7.04572 10.6179 6.96491 10.3863 6.93694ZM19.1325 5.92055C21.3844 10.9604 19.1217 16.8782 14.0819 19.1301C9.0421 21.3819 3.12424 19.1192 0.872399 14.0794C-1.37945 9.03961 0.883242 3.12176 5.92304 0.869911C10.9628 -1.38193 16.8807 0.880754 19.1325 5.92055ZM12.6871 5.90892C12.3942 5.64551 12.008 5.46757 11.5285 5.37511C11.3335 5.33082 11.1183 5.33936 10.903 5.34791L10.5386 3.84592L9.10965 4.17771L9.42513 5.57015L8.49969 5.85221L8.18421 4.45978L6.71873 4.80789L7.05053 6.23684L4.8259 6.74891L5.09631 7.94243L5.45762 7.86861C5.69306 7.80722 5.81894 7.79479 5.92462 7.8352C6.01398 7.83908 6.08313 7.8958 6.11577 7.96884C6.18492 8.02557 6.21368 8.18797 6.27506 8.42341L7.42974 13.1648C7.49113 13.4003 7.51988 13.5627 7.51599 13.652C7.51211 13.7414 7.45538 13.8105 7.38234 13.8432C7.32562 13.9123 7.17954 13.9776 6.92778 14.0025L6.56646 14.0763L6.83687 15.2698L9.04519 14.7212L9.37698 16.1502L10.8425 15.8021L10.527 14.4096L11.3592 14.213C11.3957 14.1967 11.4322 14.1804 11.4851 14.2006L11.8169 15.6296L13.2458 15.2978L12.8814 13.7958C13.1005 13.6979 13.3033 13.5634 13.4696 13.4453C13.9319 13.1073 14.2521 12.7452 14.3974 12.286C14.5955 11.847 14.6149 11.4002 14.4921 10.9293C14.402 10.5315 14.2186 10.2191 13.9785 9.97588C13.7221 9.69615 13.4253 9.5221 13.0717 9.4172C12.8239 9.35271 12.5029 9.32085 12.0562 9.30143C12.405 9.10173 12.6483 8.86163 12.8386 8.60132C13.029 8.34102 13.13 8.07683 13.1945 7.82896C13.2427 7.54456 13.2543 7.27649 13.1766 7.00453C13.1797 6.52122 12.98 6.17233 12.6871 5.90892Z" fill="#E7973D"/>
</g>
</svg>
