<svg width="20" height="20" viewBox="0 0 20 20" fill="none" xmlns="http://www.w3.org/2000/svg">
<circle cx="10" cy="10" r="9" fill="white"/>
<path d="M10.2386 6.59332C9.70158 6.59332 8.8125 6.59332 8.8125 6.59332V9.41022H11.0572V10.5898H8.8125V13.4067C8.8125 13.4067 9.93046 13.4067 10.309 13.4067C10.6963 13.4067 13.4692 13.4507 13.4692 10.1321C13.4604 6.80459 10.7755 6.59332 10.2386 6.59332Z" fill="#BDA749"/>
<path d="M10 0C4.48063 0 0 4.48063 0 10C0 15.5194 4.48063 20 10 20C15.5194 20 20 15.5194 20 10C20 4.48063 15.5282 0 10 0ZM10.3961 15.4049H6.76937V10.5898H5.49296V9.41021H6.76937V4.59507C6.76937 4.59507 9.14613 4.59507 9.87676 4.59507C10.6074 4.59507 15.4842 4.44542 15.4842 10.088C15.4842 15.8275 10.3961 15.4049 10.3961 15.4049Z" fill="#BDA749"/>
</svg>
