<svg width="20" height="20" viewBox="0 0 20 20" fill="none" xmlns="http://www.w3.org/2000/svg">
<circle cx="10" cy="10" r="10" fill="#6358A7"/>
<path d="M10.381 13.5511C9.37597 13.5511 8.49546 12.8484 8.01723 11.8029H11.1801V10.3541H7.64966C7.64086 10.2369 7.63612 10.1195 7.63612 9.99958C7.63612 9.8808 7.64083 9.76196 7.64966 9.64634H11.1801V8.1972H8.01726C8.49549 7.15183 9.37597 6.44933 10.381 6.44933C11.3416 6.44933 12.2462 7.11736 12.7415 8.19195L14 7.56708C13.2704 5.98323 11.8838 5 10.381 5C9.25125 5 8.19678 5.53628 7.41178 6.51138C7.01697 7.0019 6.71531 7.57426 6.517 8.1972H5V9.64631H6.25118C6.24446 9.7627 6.24099 9.88158 6.24099 9.99955C6.24099 10.1187 6.24446 10.2361 6.25118 10.354H5V11.8029H6.517C6.71531 12.4258 7.01697 12.9975 7.41181 13.4876C8.19681 14.4627 9.25128 15 10.381 15C11.8839 15 13.2704 14.0169 14 12.4331L12.7415 11.807C12.2461 12.883 11.3416 13.5511 10.381 13.5511Z" fill="white"/>
</svg>
