<svg width="89" height="22" viewBox="0 0 89 22" fill="none" xmlns="http://www.w3.org/2000/svg">
<path d="M21.954 22V0H23.1404V22H21.954ZM34.4138 2.86033V2.75011H39.1605V13.7501C39.1605 16.7877 36.504 19.2501 33.2272 19.2501C29.9503 19.2501 27.2939 16.7877 27.2939 13.7501H32.0405C32.0405 14.3575 32.5717 14.8501 33.2272 14.8501C33.8825 14.8501 34.4138 14.3575 34.4138 13.7501V2.86033ZM51.5535 8.65531C52.0785 9.18221 52.4836 9.82285 52.7575 10.5596C53.0267 11.2856 53.1631 12.1073 53.1631 13.0021C53.1631 13.2166 53.1544 13.4117 53.1373 13.582C53.1126 13.8191 53.0893 13.9234 53.0423 14.0116L52.9113 14.2561H44.7018C44.7421 14.4303 44.8019 14.5951 44.8809 14.7478C45.0286 15.0346 45.2258 15.287 45.4669 15.4982C45.7073 15.7087 45.9888 15.875 46.3037 15.993C46.6166 16.1104 46.96 16.1701 47.3245 16.1701C48.0427 16.1701 48.5895 16.0244 48.9493 15.7373L49.1418 15.584L52.6215 16.4825L52.2504 16.9891C51.9219 17.4379 51.5103 17.8359 51.0269 18.1721C50.5449 18.5071 49.9886 18.7733 49.3734 18.9634C48.758 19.1537 48.0688 19.2501 47.3245 19.2501C46.4789 19.2501 45.6625 19.1104 44.898 18.8349C44.1284 18.5579 43.4432 18.1479 42.8617 17.6161C42.2814 17.0864 41.8113 16.4316 41.4643 15.6702C41.1166 14.9084 40.9405 14.0328 40.9405 13.0681C40.9405 12.1634 41.1083 11.3294 41.4394 10.5893C41.77 9.85123 42.2228 9.20817 42.7855 8.67819C43.3485 8.14865 44.0059 7.73175 44.74 7.43893C45.4766 7.14501 46.2506 6.99607 47.0397 6.99607C47.9831 6.99607 48.8456 7.13995 49.6029 7.42419C50.369 7.71129 51.025 8.12555 51.5535 8.65531ZM44.8119 11.5061H49.3656C49.3395 11.4064 49.3062 11.3085 49.2668 11.213C49.1729 10.9862 49.0293 10.7825 48.8401 10.6071C48.6488 10.4296 48.4058 10.2844 48.1179 10.1751C47.8286 10.0655 47.4738 10.0101 47.0634 10.0101C46.7051 10.0101 46.3821 10.0677 46.1041 10.1814C45.822 10.2972 45.5808 10.4498 45.3872 10.6351C45.188 10.8258 45.0267 11.0441 44.9075 11.2834C44.8705 11.3578 44.8385 11.4321 44.8119 11.5061ZM74.2202 8.74419C74.7995 9.28935 75.2571 9.94099 75.5801 10.6811C75.9022 11.4207 76.0655 12.2387 76.0655 13.1121C76.0655 13.9852 75.9022 14.8063 75.5806 15.5523C75.2581 16.3003 74.8 16.9561 74.2202 17.5017C73.6406 18.0467 72.9505 18.4787 72.1687 18.7861C71.3853 19.0939 70.5164 19.2501 69.5863 19.2501C68.6726 19.2501 67.8084 19.0941 67.0176 18.7867C66.2259 18.479 65.5343 18.046 64.9619 17.4995C64.3908 16.9546 63.9378 16.2994 63.6157 15.5523C63.2941 14.8072 63.1309 13.9861 63.1309 13.1121C63.1309 12.2376 63.2944 11.4198 63.6164 10.6811C63.9387 9.94187 64.3913 9.29089 64.9621 8.74639C65.5343 8.20013 66.2259 7.76695 67.0176 7.45917C67.8084 7.15183 68.6726 6.99607 69.5863 6.99607C70.5164 6.99607 71.3853 7.15205 72.1685 7.45983C72.9507 7.76717 73.6409 8.19947 74.2202 8.74419ZM72.1091 14.4299C72.2622 14.0563 72.3396 13.613 72.3396 13.1121C72.3396 12.6118 72.2622 12.1729 72.1101 11.8075C71.9599 11.4471 71.755 11.142 71.5009 10.9C71.2498 10.661 70.959 10.4811 70.637 10.3651C70.3054 10.2463 69.9523 10.1861 69.5863 10.1861C69.2203 10.1861 68.8667 10.2463 68.5356 10.3651C68.2155 10.4804 67.9304 10.6588 67.6879 10.8958C67.4375 11.1402 67.2303 11.4489 67.0718 11.8134C66.9135 12.1771 66.8335 12.6138 66.8335 13.1121C66.8335 13.611 66.9137 14.0526 67.0727 14.4237C67.2312 14.7948 67.438 15.1064 67.6879 15.3499C67.9328 15.5895 68.2205 15.7727 68.5432 15.8944C68.8717 16.0189 69.2227 16.0821 69.5863 16.0821C69.9497 16.0821 70.3007 16.0189 70.6296 15.8946C70.954 15.7719 71.2474 15.5873 71.5009 15.3459C71.7546 15.1046 71.9589 14.7964 72.1091 14.4299ZM88.7173 9.92224C88.9051 10.4766 89 11.0759 89 11.704V18.92H85.2979V12.144C85.2979 11.5806 85.1479 11.1003 84.8524 10.7167C84.5885 10.3746 84.1131 10.208 83.3992 10.208C82.7591 10.208 82.2963 10.3924 81.9849 10.7714C81.6429 11.1881 81.4768 11.6873 81.4768 12.298V18.92H77.7747V7.32602H81.4054V7.96556C81.6581 7.76404 81.9365 7.59706 82.2365 7.4666C82.9224 7.16894 83.6327 7.01802 84.3485 7.01802C85.1253 7.01802 85.8143 7.14232 86.3962 7.3874C86.9827 7.63468 87.4756 7.98316 87.8617 8.4236C88.2377 8.8537 88.5256 9.35794 88.7173 9.92224ZM60.8412 15.8764C61.0799 15.8487 61.1485 15.835 61.164 15.8313L61.7544 15.6934V18.6675L61.4566 18.7782C61.3894 18.8033 61.2629 18.8442 60.8792 18.9384C60.5671 19.0149 60.147 19.0521 59.5947 19.0521C58.3955 19.0521 57.4295 18.7287 56.7239 18.0909C56.0146 17.4505 55.655 16.5527 55.655 15.4221V10.4721H54.231V7.32611H55.6545L55.655 4.04789H59.3337V7.32611H61.7307V10.4721H59.3337V15.0039C59.3337 15.3425 59.4067 15.5869 59.5446 15.7105C59.6873 15.8383 59.959 15.9061 60.3305 15.9061C60.4997 15.9061 60.6713 15.896 60.8412 15.8764ZM1.2209 7.21435C1.11932 7.23943 1.03626 7.13955 1.08657 7.05397C2.21177 5.14085 4.1465 3.64133 6.59672 3.03281C9.0467 2.42451 11.5313 2.82645 13.5377 3.96187C13.6275 4.01269 13.6094 4.13765 13.5078 4.16295L1.2209 7.21435ZM16.285 6.39665C16.8193 7.13255 17.2346 7.96063 17.4961 8.86527C17.7577 9.76991 17.8445 10.6794 17.779 11.5642C17.7755 11.6113 17.7396 11.6511 17.6905 11.6632L1.64494 15.6481C1.59582 15.6602 1.54337 15.6424 1.51489 15.6034C0.980888 14.8673 0.565557 14.0395 0.303779 13.1348C0.042476 12.2302 -0.044625 11.3207 0.0208787 10.4356C0.0244387 10.3888 0.0602759 10.349 0.109404 10.3366L16.155 6.35177C16.2041 6.33967 16.2568 6.35749 16.285 6.39665ZM16.5792 14.7857C16.6805 14.7606 16.7636 14.8604 16.7133 14.946C15.5883 16.8591 13.6533 18.3587 11.2033 18.9672C8.75312 19.5755 6.26873 19.1735 4.26232 18.0381C4.17261 17.9873 4.19064 17.8623 4.29199 17.837L16.5792 14.7857Z" fill="#FF6300"/>
</svg>
