<svg width="54" height="42" viewBox="0 0 54 42" fill="none" xmlns="http://www.w3.org/2000/svg">
<path d="M3.59257 40.9377H2.6521V36.593H3.57413V37.1202C3.94601 36.8085 4.3889 36.5902 4.86496 36.484C5.45693 36.5245 6.0019 36.8164 6.35864 37.2838C6.69102 36.7985 7.24016 36.5008 7.83388 36.484C8.67472 36.4518 9.41244 37.032 9.56729 37.8473V40.9195H8.66371V38.2291C8.65534 37.9886 8.54451 37.7628 8.35847 37.6071C8.17243 37.4514 7.9284 37.3802 7.68636 37.4111C7.1569 37.3551 6.67372 37.7124 6.57993 38.2291V40.9377H5.63946V38.2109C5.59254 37.7315 5.1875 37.3636 4.699 37.3565C3.59257 37.3565 3.57413 38.2291 3.57413 38.2291L3.59257 40.9377Z" fill="black"/>
<path d="M32.321 36.484C31.8449 36.5903 31.402 36.8086 31.0301 37.1202V36.5931H30.0343V40.9377H30.9748V38.2291C30.9748 38.2291 30.9748 37.3566 32.0997 37.3566C32.2745 37.3516 32.4472 37.3957 32.5976 37.4838L32.9111 36.6294C32.7249 36.5463 32.5249 36.497 32.321 36.484Z" fill="black"/>
<path d="M45.6354 36.484C45.1593 36.5903 44.7164 36.8086 44.3445 37.1202V36.5931H43.4225V40.9377H44.363V38.2291C44.363 38.2291 44.363 37.3566 45.4878 37.3566C45.6627 37.3516 45.8354 37.3957 45.9857 37.4838L46.2992 36.6294C46.1003 36.5482 45.8875 36.505 45.6722 36.5022L45.6354 36.484Z" fill="black"/>
<path d="M12.65 36.4657C12.0531 36.4893 11.4903 36.7459 11.0856 37.179C10.6809 37.6121 10.4675 38.186 10.4924 38.7743C10.4504 40.0192 11.4253 41.069 12.6869 41.1375C13.2179 41.1038 13.7232 40.8995 14.1252 40.5558V40.9921H15.0473V36.5929H14.1068V37.1383C13.7205 36.7362 13.1925 36.4955 12.6315 36.4657H12.65ZM12.8344 37.3564C13.4391 37.3116 14.01 37.6361 14.2736 38.1744C14.5372 38.7128 14.4398 39.3553 14.028 39.7941C13.6162 40.2329 12.974 40.3787 12.4091 40.1615C11.8441 39.9443 11.4715 39.4085 11.4698 38.8107C11.4548 38.4394 11.5903 38.0775 11.8462 37.8047C12.1022 37.5319 12.4577 37.3706 12.8344 37.3564Z" fill="black"/>
<path d="M39.7736 36.4657C39.1768 36.4893 38.614 36.7459 38.2093 37.179C37.8045 37.6121 37.5911 38.186 37.6161 38.7743C37.5744 40.026 38.56 41.0786 39.829 41.1375C40.36 41.1038 40.8653 40.8995 41.2673 40.5558V40.9921H42.1894V36.5929H41.2489V37.1383C40.8626 36.7362 40.3346 36.4955 39.7736 36.4657ZM39.9581 37.3564C40.5627 37.3116 41.1337 37.6361 41.3973 38.1744C41.6609 38.7128 41.5634 39.3553 41.1517 39.7941C40.7399 40.2329 40.0977 40.3787 39.5327 40.1615C38.9678 39.9443 38.5952 39.4085 38.5935 38.8107C38.5785 38.4394 38.7139 38.0775 38.9699 37.8047C39.2259 37.5319 39.5814 37.3706 39.9581 37.3564Z" fill="black"/>
<path d="M48.7156 36.4659C47.5019 36.5533 46.5787 37.5761 46.6318 38.7746C46.5879 39.9932 47.5202 41.0321 48.7525 41.1377C49.2835 41.104 49.7888 40.8997 50.1908 40.556V40.9923H51.1129V34.8844H50.1724V37.1385C49.7861 36.7364 49.2581 36.4957 48.6972 36.4659H48.7156ZM48.9 37.3566C49.5047 37.3118 50.0756 37.6363 50.3392 38.1746C50.6028 38.713 50.5054 39.3555 50.0936 39.7943C49.6818 40.2332 49.0396 40.3789 48.4747 40.1617C47.9097 39.9445 47.5371 39.4087 47.5354 38.8109C47.5204 38.4396 47.6559 38.0777 47.9118 37.8049C48.1678 37.5321 48.5233 37.3708 48.9 37.3566Z" fill="black"/>
<path d="M17.9075 41.1376C17.2524 41.1023 16.6175 40.902 16.0634 40.5559L16.4691 39.9378C16.923 40.1449 17.4094 40.274 17.9075 40.3196C18.2947 40.3196 18.9586 40.1923 18.9586 39.8106C18.9586 39.4288 17.8521 39.2834 17.8521 39.2834C17.8521 39.2834 16.1925 39.2834 16.1925 37.92C16.1925 37.0656 17.0223 36.5385 18.0365 36.5385C18.676 36.615 19.2988 36.7931 19.8806 37.0656L19.4196 37.7746C18.9874 37.6002 18.5354 37.4781 18.0734 37.411C17.6862 37.411 17.2067 37.5746 17.2067 37.92C17.2067 38.8471 19.9728 37.92 19.9728 39.7378C19.9728 40.9558 18.8479 41.1739 17.9443 41.1739L17.9075 41.1376Z" fill="black"/>
<path d="M21.4404 35.3389V36.6114H20.629V37.5021H21.4589V39.6835C21.4356 40.0903 21.5934 40.487 21.8909 40.7698C22.1885 41.0527 22.5963 41.1936 23.0079 41.156C23.4627 41.1028 23.9089 40.9929 24.3356 40.8287L23.9668 39.8835C23.7594 40.0567 23.5005 40.1587 23.2292 40.1743C22.4915 40.1743 22.51 39.6835 22.51 39.6835V37.5021H24.0405V36.5932H22.4731V35.3207L21.4404 35.3389Z" fill="black"/>
<path d="M27.0533 36.5204C25.8353 36.6268 24.9014 37.6327 24.9014 38.8381C24.9014 40.0436 25.8353 41.0494 27.0533 41.1559C27.6636 41.0745 28.2487 40.8636 28.7683 40.5378L28.3442 39.7925C27.9619 40.0562 27.5175 40.2189 27.0533 40.2651C26.3744 40.286 25.8021 39.7701 25.7625 39.1017H28.9896C28.9896 39.1017 29.3215 36.5204 27.0533 36.5204ZM26.9242 37.3748H27.0349C27.328 37.3598 27.6145 37.4642 27.8272 37.6636C28.0399 37.863 28.1602 38.1398 28.1598 38.4291H25.8547C25.8443 38.1465 25.9536 37.8723 26.1565 37.6723C26.3594 37.4723 26.6375 37.3645 26.9242 37.3748Z" fill="black"/>
<path d="M36.639 39.7925L37.0632 40.6469C36.618 40.9376 36.1026 41.1069 35.5695 41.1377C34.9309 41.1673 34.3074 40.9403 33.8417 40.5086C33.3759 40.0768 33.1077 39.4774 33.0985 38.8472C33.0438 38.1939 33.29 37.5509 33.7691 37.0963C34.2482 36.6416 34.9093 36.4235 35.5695 36.5022C36.1384 36.5258 36.6913 36.695 37.1738 36.993L36.6944 37.8474C36.4082 37.5145 35.9725 37.344 35.5326 37.3929C34.7961 37.475 34.2395 38.0892 34.2395 38.8199C34.2395 39.5506 34.7961 40.1649 35.5326 40.2469C35.9618 40.2184 36.3697 40.0525 36.6944 39.7743L36.639 39.7925Z" fill="black"/>
<path d="M53.7561 16.3605C53.7561 25.3962 46.3257 32.7211 37.1597 32.7211C27.9937 32.7211 20.5632 25.3962 20.5632 16.3605C20.5632 7.32486 27.9937 0 37.1597 0C46.3257 0 53.7561 7.32486 53.7561 16.3605Z" fill="#F79F1A"/>
<path d="M33.1929 16.3605C33.1929 25.3962 25.7624 32.7211 16.5965 32.7211C7.43049 32.7211 0 25.3962 0 16.3605C0 7.32486 7.43049 0 16.5965 0C20.9981 0 25.2195 1.72369 28.3319 4.79189C31.4444 7.86008 33.1929 12.0214 33.1929 16.3605Z" fill="#EA001B"/>
<path d="M26.8108 3.39868C22.7782 6.52101 20.4235 11.2959 20.4235 16.3508C20.4235 21.4056 22.7782 26.1805 26.8108 29.3029C30.8434 26.1805 33.1981 21.4056 33.1981 16.3508C33.1981 11.2959 30.8434 6.52101 26.8108 3.39868Z" fill="#FF5F01"/>
</svg>
