<svg width="57" height="18" viewBox="0 0 57 18" fill="none" xmlns="http://www.w3.org/2000/svg">
<path d="M28.2191 0.386693L24.3884 17.7754H19.8044L23.6351 0.386693H28.2191ZM47.6022 11.6133L50.0282 5.07691L51.42 11.6133H47.6022ZM52.7097 17.7754H57L53.297 0.386693H49.3515C48.4968 0.37146 47.7185 0.865198 47.3851 1.63409L40.5282 17.7879H45.3676L46.3253 15.1933H52.2372L52.7097 17.7754ZM40.6815 12.0997C40.6815 7.50933 34.1821 7.25985 34.2332 5.20165C34.2332 4.57795 34.8589 3.95425 36.1868 3.74219C37.7457 3.59539 39.3162 3.86259 40.7325 4.51558L41.537 0.773386C40.1607 0.268944 38.7038 0.00708906 37.2339 0C32.6754 0 29.4832 2.35758 29.4577 5.7505C29.4577 8.24529 31.7433 9.65485 33.4926 10.4906C35.2419 11.3264 35.8931 11.8877 35.8804 12.6486C35.8804 13.8212 34.4503 14.3326 33.1223 14.3575C31.4773 14.392 29.8508 14.0141 28.3979 13.2598L27.5679 17.0769C29.1968 17.6921 30.929 18.0051 32.6754 17.9999C37.5148 17.9999 40.6815 15.6673 40.6942 12.0499L40.6815 12.0997ZM21.6431 0.386693L14.1734 17.7879H9.30847L5.63105 3.90435C5.55868 3.25251 5.14886 2.68259 4.5457 2.395C3.10016 1.71313 1.57311 1.21028 0 0.898126L0.114919 0.399167H7.9422C8.99889 0.399019 9.89829 1.15063 10.0618 2.17047L12.0027 12.237L16.791 0.399167L21.6431 0.386693Z" fill="#1047A4"/>
</svg>
