<svg width="17" height="17" viewBox="0 0 17 17" fill="none" xmlns="http://www.w3.org/2000/svg">
<path d="M2.34087 14.5448C-0.801781 11.2712 -0.80178 5.64062 2.47182 2.36703C4.8288 0.010038 8.36429 -0.644681 11.376 0.664757L12.5545 1.31948L13.8639 2.23608L11.7688 4.46213L10.9832 3.93835C9.14995 2.62891 6.40013 2.8908 4.69786 4.72402C2.7337 6.81912 2.60276 10.3546 4.69786 12.5806C6.66202 14.8067 10.1975 14.8067 12.1617 12.5806C12.6854 12.0569 13.2092 11.2712 13.3402 10.3546V10.0927H8.62618V7.34289H16.2209L16.3519 7.99761V9.83083C16.2209 11.5331 15.5662 13.3663 14.3877 14.5448C11.1141 17.8184 5.48352 17.8184 2.34087 14.5448Z" fill="white"/>
</svg>
